<svg id="SvgjsSvg1024" width="288" height="288" xmlns="http://www.w3.org/2000/svg" version="1.1" xmlns:xlink="http://www.w3.org/1999/xlink" xmlns:svgjs="http://svgjs.com/svgjs"><defs id="SvgjsDefs1025"></defs><g id="SvgjsG1026" transform="matrix(1,0,0,1,0,0)"><svg xmlns="http://www.w3.org/2000/svg" viewBox="0 0 24 24" width="288" height="288"><g data-name="Layer 2" fill="#000000" class="color000 svgShape"><path d="M13.67 22h-.06a1 1 0 0 1-.92-.8L11 13l-8.2-1.69a1 1 0 0 1-.12-1.93l16-5.33A1 1 0 0 1 20 5.32l-5.33 16a1 1 0 0 1-1 .68zm-6.8-11.9 5.19 1.06a1 1 0 0 1 .79.78l1.05 5.19 3.52-10.55z" data-name="navigation-2" fill="#000000" class="color000 svgShape"></path></g></svg></g></svg>